<svg width="21" height="21" viewBox="0 0 21 21" fill="none" xmlns="http://www.w3.org/2000/svg">
<path d="M0 10.2455C0 11.923 0.411831 13.5 1.15514 14.9062L2.89286 13.1685C3.12388 12.9375 3.47545 12.9375 3.70647 13.1685C3.9375 13.3995 3.94755 13.7511 3.70647 13.9922L1.75781 15.9409C2.00893 16.2924 2.26005 16.6339 2.55134 16.9453L16.9553 2.55134C16.6339 2.26005 16.2824 1.99888 15.9409 1.75781L13.9721 3.72657C13.741 3.95759 13.3795 3.94755 13.1484 3.72657C12.9174 3.49553 12.9174 3.14397 13.1484 2.9029L14.8962 1.16518C13.5 0.411831 11.9129 0 10.2355 0C4.64062 0 0 4.64062 0 10.2455ZM12.4353 5.26339L11.0591 6.63951C10.8281 6.87053 10.4665 6.86049 10.2355 6.63951C10.0145 6.40848 10.0045 6.03683 10.2355 5.81585L11.6217 4.43973C11.8527 4.21875 12.2143 4.20871 12.4353 4.43973C12.6663 4.67076 12.6663 5.03236 12.4353 5.26339ZM9.53237 8.17634L8.14621 9.55243C7.92522 9.7734 7.56362 9.7734 7.33259 9.55243C7.10157 9.32143 7.10157 8.9598 7.33259 8.7288L8.70874 7.35267C8.93974 7.12165 9.30137 7.12165 9.53237 7.35267C9.75334 7.57366 9.76337 7.95536 9.53237 8.17634ZM6.61942 11.0793L5.25335 12.4553C5.01228 12.6864 4.66071 12.6764 4.42969 12.4553C4.19866 12.2243 4.19866 11.8728 4.42969 11.6417L5.79576 10.2555C6.02679 10.0245 6.38839 10.0346 6.61942 10.2555C6.8404 10.4866 6.86049 10.8482 6.61942 11.0793ZM10.2455 20.491C15.8505 20.491 20.491 15.8404 20.491 10.2455C20.491 8.57811 20.0793 6.99107 19.3359 5.59486L17.5982 7.32255C17.3571 7.56362 17.0157 7.55357 16.7846 7.32255C16.5636 7.09152 16.5435 6.73995 16.7846 6.49888L18.7333 4.56027C18.4922 4.20871 18.241 3.86719 17.9498 3.55581L3.54576 17.9498C3.86719 18.231 4.20871 18.4922 4.55022 18.7333L6.51897 16.7645C6.76005 16.5134 7.11161 16.5335 7.34264 16.7645C7.57366 16.9955 7.58371 17.3371 7.34264 17.5781L5.58482 19.3359C6.99107 20.0692 8.56808 20.491 10.2455 20.491ZM16.0614 8.84931L14.6953 10.2355C14.4643 10.4665 14.1027 10.4565 13.8717 10.2355C13.6507 9.99446 13.6407 9.64286 13.8717 9.41186L15.2478 8.03571C15.4788 7.80469 15.8304 7.80469 16.0614 8.03571C16.3024 8.25669 16.2924 8.61831 16.0614 8.84931ZM13.1585 11.7623L11.7824 13.1283C11.5514 13.3695 11.1897 13.3695 10.9587 13.1283C10.7377 12.9074 10.7277 12.5357 10.9587 12.3047L12.3448 10.9386C12.5659 10.7176 12.9375 10.7176 13.1585 10.9386C13.3895 11.1696 13.3895 11.5212 13.1585 11.7623ZM10.2555 14.6652L8.86946 16.0413C8.63837 16.2623 8.28683 16.2723 8.05581 16.0413C7.82478 15.8103 7.82478 15.4486 8.05581 15.2176L9.43191 13.8415C9.66291 13.6105 10.0245 13.6305 10.2555 13.8415C10.4766 14.0826 10.4866 14.4442 10.2555 14.6652Z" fill="#CBEA7B"/>
</svg>
